<svg width="513" height="513" viewBox="0 0 513 513" fill="none" xmlns="http://www.w3.org/2000/svg">
<path d="M261.578 101.643C260.089 100.219 258.108 99.4243 256.048 99.4243C253.988 99.4243 252.007 100.219 250.518 101.643L66.418 277.513C65.6361 278.261 65.0141 279.16 64.5896 280.155C64.165 281.15 63.9467 282.221 63.948 283.303L63.918 448.363C63.918 456.85 67.2894 464.99 73.2906 470.991C79.2917 476.992 87.431 480.363 95.918 480.363H192.018C196.261 480.363 200.331 478.678 203.332 475.677C206.332 472.677 208.018 468.607 208.018 464.363V328.363C208.018 326.242 208.861 324.207 210.361 322.707C211.861 321.206 213.896 320.363 216.018 320.363H296.018C298.14 320.363 300.175 321.206 301.675 322.707C303.175 324.207 304.018 326.242 304.018 328.363V464.363C304.018 468.607 305.704 472.677 308.704 475.677C311.705 478.678 315.775 480.363 320.018 480.363H416.078C424.565 480.363 432.704 476.992 438.705 470.991C444.707 464.99 448.078 456.85 448.078 448.363V283.303C448.079 282.221 447.861 281.15 447.436 280.155C447.012 279.16 446.39 278.261 445.608 277.513L261.578 101.643Z" fill="black"/>
<path d="M490.928 244.513L416.128 172.953V64.3633C416.128 60.1198 414.442 56.0502 411.442 53.0496C408.441 50.049 404.371 48.3633 400.128 48.3633H352.128C347.884 48.3633 343.815 50.049 340.814 53.0496C337.814 56.0502 336.128 60.1198 336.128 64.3633V96.3633L278.208 40.9833C272.788 35.5033 264.728 32.3633 256.018 32.3633C247.338 32.3633 239.298 35.5033 233.878 40.9933L21.178 244.493C14.958 250.493 14.178 260.363 19.838 266.863C21.2593 268.504 22.9996 269.838 24.9529 270.785C26.9063 271.732 29.0319 272.271 31.2004 272.37C33.3688 272.469 35.5348 272.126 37.5664 271.362C39.598 270.597 41.4528 269.427 43.018 267.923L250.518 69.6433C252.007 68.2191 253.988 67.4242 256.048 67.4242C258.108 67.4242 260.089 68.2191 261.578 69.6433L469.098 267.923C472.155 270.855 476.249 272.455 480.484 272.372C484.718 272.29 488.748 270.532 491.688 267.483C497.828 261.123 497.318 250.623 490.928 244.513Z" fill="black"/>
</svg>
