<svg width="512" height="512" viewBox="0 0 512 512" fill="none" xmlns="http://www.w3.org/2000/svg">
<path d="M496 128.05C496.017 115.72 492.473 103.647 485.793 93.2838C479.113 82.9202 469.582 74.7069 458.345 69.6314C447.108 64.5559 434.644 62.8343 422.452 64.6737C410.26 66.5132 398.859 71.8352 389.62 80C384.618 84.4123 380.33 89.5737 376.91 95.3V95.36C376.37 96.26 375.86 97.18 375.36 98.1L375.12 98.59C374.7 99.38 374.31 100.18 373.93 100.99C373.81 101.24 373.7 101.49 373.59 101.74C373.26 102.47 372.94 103.21 372.64 103.96C372.51 104.27 372.39 104.58 372.27 104.89C372 105.59 371.74 106.29 371.49 107L371.13 108.06C370.91 108.74 370.7 109.43 370.5 110.12C370.38 110.51 370.27 110.89 370.17 111.28C369.98 111.95 369.82 112.63 369.66 113.28C369.56 113.69 369.46 114.1 369.37 114.51C369.23 115.19 369.1 115.88 368.98 116.51C368.9 116.93 368.82 117.35 368.75 117.77C368.64 118.47 368.55 119.18 368.46 119.89C368.41 120.3 368.35 120.71 368.3 121.13C368.22 121.9 368.17 122.67 368.11 123.45C368.11 123.81 368.05 124.17 368.03 124.53C367.97 125.67 367.93 126.81 367.93 127.97C367.93 128.97 367.93 129.97 368.01 130.91V131.55C368.063 132.49 368.133 133.43 368.22 134.37L368.28 134.85C368.37 135.7 368.47 136.54 368.6 137.37C368.6 137.54 368.6 137.72 368.67 137.89C368.81 138.8 368.98 139.7 369.16 140.6C369.16 140.82 369.25 141.03 369.29 141.25C369.47 142.11 369.67 142.97 369.89 143.82V144.01C370.12 144.9 370.37 145.77 370.64 146.64L370.85 147.32C371.12 148.17 371.4 149 371.7 149.83C371.76 150.01 371.83 150.19 371.9 150.37C372.17 151.08 372.45 151.79 372.74 152.49C372.82 152.7 372.9 152.9 372.99 153.1C373.33 153.89 373.68 154.68 374.05 155.46L374.38 156.13C374.73 156.83 375.08 157.53 375.45 158.22C380.67 167.921 388.293 176.12 397.59 182.03C400.03 183.589 402.576 184.976 405.21 186.18L405.6 186.36C407.373 187.16 409.183 187.88 411.03 188.52L411.98 188.84L413.48 189.31C413.93 189.45 414.38 189.57 414.84 189.7L416.76 190.2L418.49 190.6L419.64 190.83L421.47 191.16L422.41 191.31C423.31 191.44 424.22 191.56 425.13 191.66L425.9 191.73C426.63 191.79 427.37 191.85 428.11 191.89L428.97 191.94C429.97 191.94 430.91 192.02 431.89 192.02C433.05 192.02 434.19 192.02 435.33 191.92L436.41 191.84C437.19 191.78 437.96 191.73 438.73 191.65L439.98 191.49C440.68 191.4 441.39 191.31 442.09 191.2L443.35 190.97C444.03 190.85 444.72 190.72 445.35 190.58L446.58 190.29C447.26 190.13 447.94 189.97 448.58 189.78C448.97 189.68 449.35 189.57 449.74 189.45C450.43 189.25 451.12 189.04 451.8 188.82L452.86 188.46C453.57 188.21 454.27 187.95 454.97 187.68L455.9 187.31C456.65 187.01 457.39 186.69 458.12 186.36L458.87 186.02C459.68 185.64 460.48 185.25 461.27 184.83L461.76 184.59C462.68 184.09 463.6 183.59 464.5 183.04H464.56C470.332 179.647 475.541 175.376 480 170.38C490.325 158.698 496.017 143.641 496 128.05Z" fill="black"/>
<path d="M371.38 202.53L265.82 284.63C263.012 286.813 259.557 287.998 256 287.998C252.443 287.998 248.988 286.813 246.18 284.63L102.18 172.63C100.488 171.352 99.0671 169.751 97.9994 167.92C96.9316 166.088 96.2386 164.062 95.9605 161.961C95.6824 159.859 95.8248 157.723 96.3793 155.676C96.9339 153.63 97.8897 151.715 99.191 150.041C100.492 148.367 102.113 146.969 103.96 145.927C105.806 144.885 107.841 144.221 109.947 143.972C112.052 143.724 114.186 143.896 116.224 144.479C118.263 145.063 120.165 146.045 121.82 147.37L256 251.73L350.22 178.45C341.103 163.702 336.158 146.757 335.909 129.42C335.661 112.083 340.12 95.0034 348.81 80H88C73.1528 80.0159 58.9182 85.921 48.4196 96.4196C37.921 106.918 32.0159 121.153 32 136V376C32.0159 390.847 37.921 405.082 48.4196 415.58C58.9182 426.079 73.1528 431.984 88 432H424C438.847 431.984 453.082 426.079 463.58 415.58C474.079 405.082 479.984 390.847 480 376V211.19C463.157 220.946 443.743 225.343 424.34 223.796C404.937 222.249 386.464 214.832 371.38 202.53Z" fill="black"/>
</svg>
