<svg width="512" height="512" viewBox="0 0 512 512" fill="none" xmlns="http://www.w3.org/2000/svg">
<path d="M336 256C315.44 256 295.56 246.82 280 230.16C264.87 213.91 255.63 192.24 254 169.16C252.26 144.54 259.77 121.9 275.14 105.4C290.51 88.9 312 80 336 80C359.83 80 381.38 89.06 396.7 105.52C412.17 122.14 419.7 144.74 417.96 169.15C416.29 192.26 407.06 213.92 391.96 230.15C376.44 246.82 356.57 256 336 256ZM467.83 432H204.18C199.941 432.023 195.753 431.073 191.939 429.223C188.125 427.373 184.786 424.673 182.18 421.33C179.415 417.706 177.505 413.504 176.595 409.038C175.684 404.572 175.795 399.957 176.92 395.54C185.34 361.73 206.2 333.69 237.24 314.46C264.79 297.4 299.86 288 336 288C372.85 288 407 297 434.71 314.05C465.82 333.18 486.71 361.38 495.09 395.6C496.201 400.02 496.3 404.635 495.379 409.099C494.458 413.562 492.54 417.761 489.77 421.38C487.166 424.707 483.835 427.394 480.032 429.235C476.229 431.076 472.055 432.022 467.83 432ZM147 260C111.81 260 80.8698 227.28 77.9998 187.07C76.5798 166.47 82.9998 147.42 95.9998 133.45C108.86 119.62 127 112 147 112C167 112 185 119.66 197.93 133.57C211.03 147.65 217.43 166.66 215.93 187.09C213.06 227.29 182.13 260 147 260ZM212.66 291.45C195.07 282.85 172.24 278.55 147.01 278.55C117.55 278.55 88.9398 286.23 66.4398 300.17C40.9298 316 23.7698 339.05 16.8398 366.88C15.8257 370.883 15.7298 375.063 16.5593 379.109C17.3887 383.154 19.1222 386.959 21.6298 390.24C24.0093 393.295 27.0577 395.763 30.5405 397.455C34.0233 399.147 37.8478 400.018 41.7198 400H152.72C154.593 400 156.407 399.342 157.846 398.141C159.284 396.941 160.255 395.273 160.59 393.43C160.7 392.8 160.84 392.17 161 391.55C169.48 357.49 189.35 328.71 218.71 307.73C219.79 306.952 220.658 305.916 221.237 304.717C221.815 303.518 222.086 302.194 222.023 300.864C221.96 299.535 221.567 298.242 220.879 297.102C220.19 295.963 219.228 295.014 218.08 294.34C216.51 293.42 214.71 292.45 212.66 291.45Z" fill="black"/>
</svg>
