<svg width="513" height="513" viewBox="0 0 513 513" fill="none" xmlns="http://www.w3.org/2000/svg">
<path d="M288.33 256.098C341.12 256.098 387.76 206.388 392.33 145.278C394.6 114.578 384.97 85.9479 365.21 64.6779C345.66 43.6679 318.33 32.0979 288.33 32.0979C258.09 32.0979 230.74 43.5979 211.33 64.4779C191.7 85.5879 182.13 114.278 184.33 145.258C188.82 206.378 235.45 256.098 288.33 256.098ZM495.71 439.858C487.27 393.038 460.92 353.708 419.52 326.108C382.75 301.598 336.16 288.098 288.33 288.098C240.5 288.098 193.91 301.598 157.14 326.098C115.74 353.698 89.3901 393.028 80.9501 439.848C79.0201 450.578 81.6401 461.188 88.1401 468.958C91.0883 472.499 94.7901 475.336 98.9751 477.264C103.16 479.191 107.723 480.159 112.33 480.098H464.33C468.94 480.164 473.506 479.198 477.695 477.273C481.883 475.347 485.589 472.51 488.54 468.968C495.02 461.198 497.64 450.588 495.71 439.858ZM104.33 288.098V248.098H144.33C148.574 248.098 152.643 246.412 155.644 243.412C158.644 240.411 160.33 236.341 160.33 232.098C160.33 227.854 158.644 223.785 155.644 220.784C152.643 217.784 148.574 216.098 144.33 216.098H104.33V176.098C104.33 171.854 102.644 167.785 99.6438 164.784C96.6432 161.784 92.5735 160.098 88.3301 160.098C84.0866 160.098 80.017 161.784 77.0164 164.784C74.0158 167.785 72.3301 171.854 72.3301 176.098V216.098H32.3301C28.0866 216.098 24.017 217.784 21.0164 220.784C18.0158 223.785 16.3301 227.854 16.3301 232.098C16.3301 236.341 18.0158 240.411 21.0164 243.412C24.017 246.412 28.0866 248.098 32.3301 248.098H72.3301V288.098C72.3301 292.341 74.0158 296.411 77.0164 299.412C80.017 302.412 84.0866 304.098 88.3301 304.098C92.5735 304.098 96.6432 302.412 99.6438 299.412C102.644 296.411 104.33 292.341 104.33 288.098Z" fill="black"/>
</svg>
