<svg width="449" height="449" viewBox="0 0 449 449" fill="none" xmlns="http://www.w3.org/2000/svg">
<path d="M0.11084 424.608C0.11084 430.973 2.6394 437.078 7.14028 441.578C11.6412 446.079 17.7456 448.608 24.1108 448.608H424.111C430.476 448.608 436.581 446.079 441.081 441.578C445.582 437.078 448.111 430.973 448.111 424.608V144.608H0.11084V424.608ZM320.111 180.608C320.111 179.547 320.532 178.53 321.282 177.779C322.033 177.029 323.05 176.608 324.111 176.608H364.111C365.172 176.608 366.189 177.029 366.939 177.779C367.689 178.53 368.111 179.547 368.111 180.608V220.608C368.111 221.669 367.689 222.686 366.939 223.436C366.189 224.186 365.172 224.608 364.111 224.608H324.111C323.05 224.608 322.033 224.186 321.282 223.436C320.532 222.686 320.111 221.669 320.111 220.608V180.608ZM320.111 260.608C320.111 259.547 320.532 258.53 321.282 257.779C322.033 257.029 323.05 256.608 324.111 256.608H364.111C365.172 256.608 366.189 257.029 366.939 257.779C367.689 258.53 368.111 259.547 368.111 260.608V300.608C368.111 301.669 367.689 302.686 366.939 303.436C366.189 304.186 365.172 304.608 364.111 304.608H324.111C323.05 304.608 322.033 304.186 321.282 303.436C320.532 302.686 320.111 301.669 320.111 300.608V260.608ZM240.111 180.608C240.111 179.547 240.532 178.53 241.282 177.779C242.033 177.029 243.05 176.608 244.111 176.608H284.111C285.172 176.608 286.189 177.029 286.939 177.779C287.689 178.53 288.111 179.547 288.111 180.608V220.608C288.111 221.669 287.689 222.686 286.939 223.436C286.189 224.186 285.172 224.608 284.111 224.608H244.111C243.05 224.608 242.033 224.186 241.282 223.436C240.532 222.686 240.111 221.669 240.111 220.608V180.608ZM240.111 260.608C240.111 259.547 240.532 258.53 241.282 257.779C242.033 257.029 243.05 256.608 244.111 256.608H284.111C285.172 256.608 286.189 257.029 286.939 257.779C287.689 258.53 288.111 259.547 288.111 260.608V300.608C288.111 301.669 287.689 302.686 286.939 303.436C286.189 304.186 285.172 304.608 284.111 304.608H244.111C243.05 304.608 242.033 304.186 241.282 303.436C240.532 302.686 240.111 301.669 240.111 300.608V260.608ZM240.111 340.608C240.111 339.547 240.532 338.53 241.282 337.779C242.033 337.029 243.05 336.608 244.111 336.608H284.111C285.172 336.608 286.189 337.029 286.939 337.779C287.689 338.53 288.111 339.547 288.111 340.608V380.608C288.111 381.669 287.689 382.686 286.939 383.436C286.189 384.186 285.172 384.608 284.111 384.608H244.111C243.05 384.608 242.033 384.186 241.282 383.436C240.532 382.686 240.111 381.669 240.111 380.608V340.608ZM160.111 260.608C160.111 259.547 160.532 258.53 161.282 257.779C162.033 257.029 163.05 256.608 164.111 256.608H204.111C205.172 256.608 206.189 257.029 206.939 257.779C207.689 258.53 208.111 259.547 208.111 260.608V300.608C208.111 301.669 207.689 302.686 206.939 303.436C206.189 304.186 205.172 304.608 204.111 304.608H164.111C163.05 304.608 162.033 304.186 161.282 303.436C160.532 302.686 160.111 301.669 160.111 300.608V260.608ZM160.111 340.608C160.111 339.547 160.532 338.53 161.282 337.779C162.033 337.029 163.05 336.608 164.111 336.608H204.111C205.172 336.608 206.189 337.029 206.939 337.779C207.689 338.53 208.111 339.547 208.111 340.608V380.608C208.111 381.669 207.689 382.686 206.939 383.436C206.189 384.186 205.172 384.608 204.111 384.608H164.111C163.05 384.608 162.033 384.186 161.282 383.436C160.532 382.686 160.111 381.669 160.111 380.608V340.608ZM80.1108 260.608C80.1108 259.547 80.5323 258.53 81.2824 257.779C82.0326 257.029 83.05 256.608 84.1108 256.608H124.111C125.172 256.608 126.189 257.029 126.939 257.779C127.689 258.53 128.111 259.547 128.111 260.608V300.608C128.111 301.669 127.689 302.686 126.939 303.436C126.189 304.186 125.172 304.608 124.111 304.608H84.1108C83.05 304.608 82.0326 304.186 81.2824 303.436C80.5323 302.686 80.1108 301.669 80.1108 300.608V260.608ZM80.1108 340.608C80.1108 339.547 80.5323 338.53 81.2824 337.779C82.0326 337.029 83.05 336.608 84.1108 336.608H124.111C125.172 336.608 126.189 337.029 126.939 337.779C127.689 338.53 128.111 339.547 128.111 340.608V380.608C128.111 381.669 127.689 382.686 126.939 383.436C126.189 384.186 125.172 384.608 124.111 384.608H84.1108C83.05 384.608 82.0326 384.186 81.2824 383.436C80.5323 382.686 80.1108 381.669 80.1108 380.608V340.608ZM424.111 32.6079H368.191V0.60791H320.191V32.6079H128.031V0.60791H80.0308V32.6079H24.1108C20.9711 32.5815 17.8572 33.1767 14.9485 34.359C12.0398 35.5414 9.39377 37.2876 7.1629 39.4971C4.93204 41.7066 3.16041 44.3357 1.9501 47.2328C0.739777 50.13 0.114687 53.2381 0.11084 56.3779V112.608H448.111V56.3779C448.107 53.2381 447.482 50.13 446.272 47.2328C445.061 44.3357 443.29 41.7066 441.059 39.4971C438.828 37.2876 436.182 35.5414 433.273 34.359C430.364 33.1767 427.251 32.5815 424.111 32.6079Z" fill="black"/>
</svg>
